<?xml version="1.0" standalone="no"?>
<!DOCTYPE svg PUBLIC "-//W3C//DTD SVG 20010904//EN"
 "http://www.w3.org/TR/2001/REC-SVG-20010904/DTD/svg10.dtd">
<svg version="1.0" xmlns="http://www.w3.org/2000/svg"
 width="378.000000pt" height="378.000000pt" viewBox="0 0 378.000000 378.000000"
 preserveAspectRatio="xMidYMid meet">

<g transform="translate(0.000000,378.000000) scale(0.100000,-0.100000)"
fill="#f38787" stroke="none">
<path d="M1710 3750 c-359 -38 -719 -185 -990 -405 -92 -75 -250 -237 -314
-323 -218 -289 -342 -610 -377 -977 -21 -223 12 -507 86 -733 46 -140 168
-383 253 -502 87 -124 319 -355 442 -442 103 -73 281 -169 401 -216 221 -88
534 -140 759 -127 472 29 884 206 1212 523 302 292 487 646 553 1062 87 544
-91 1130 -467 1535 -305 330 -656 519 -1097 590 -111 19 -353 26 -461 15z
m489 -346 c246 -49 468 -154 666 -315 658 -534 762 -1491 234 -2161 -313 -397
-817 -618 -1322 -578 -385 31 -707 179 -978 449 -271 272 -420 595 -449 975
-35 463 137 913 472 1231 375 357 868 500 1377 399z"/>
<path d="M1301 2820 c-35 -15 -298 -277 -327 -326 -29 -49 -31 -98 -5 -139 10
-16 113 -126 230 -244 116 -117 211 -217 211 -222 0 -4 -99 -106 -220 -225
-128 -128 -224 -230 -230 -247 -15 -45 -12 -88 8 -122 31 -50 304 -316 341
-332 23 -10 49 -13 77 -8 40 6 60 23 270 231 124 123 230 224 234 224 4 0 99
-92 211 -205 112 -113 222 -217 245 -230 40 -25 90 -31 127 -16 26 10 326 311
343 343 17 32 18 76 3 115 -6 15 -109 126 -230 246 -120 119 -219 221 -219
226 0 5 99 109 221 232 121 123 225 234 230 247 14 36 11 80 -10 120 -24 47
-297 317 -334 331 -39 15 -93 14 -125 -3 -15 -8 -124 -112 -242 -230 -118
-119 -218 -216 -221 -216 -3 0 -93 88 -200 196 -240 243 -257 256 -317 260
-26 2 -58 -1 -71 -6z"/>
</g>
</svg>
