<?xml version="1.0" standalone="no"?>
<!DOCTYPE svg PUBLIC "-//W3C//DTD SVG 20010904//EN"
 "http://www.w3.org/TR/2001/REC-SVG-20010904/DTD/svg10.dtd">
<svg version="1.0" xmlns="http://www.w3.org/2000/svg"
 width="512.000000pt" height="512.000000pt" viewBox="0 0 512.000000 512.000000"
 preserveAspectRatio="xMidYMid meet">

<g transform="translate(0.000000,512.000000) scale(0.100000,-0.100000)"
fill="#000000" stroke="none">
<path d="M2240 5111 c-54 -18 -108 -51 -141 -88 -19 -21 -99 -144 -178 -273
-140 -229 -145 -236 -195 -260 -37 -19 -58 -38 -81 -74 l-30 -49 -3 -229 c-3
-226 -4 -229 -24 -226 -18 3 -31 35 -93 250 -40 136 -84 266 -98 291 -26 44
-79 87 -130 106 -17 7 -115 11 -238 11 -208 0 -211 0 -243 25 -65 49 -125 69
-211 69 -93 0 -165 -27 -232 -88 -192 -173 -124 -499 121 -582 97 -33 231 -15
306 41 30 22 44 25 127 25 l92 0 14 -47 c8 -27 54 -185 103 -353 54 -186 96
-312 107 -323 27 -27 85 -19 110 15 l21 28 -57 197 c-149 518 -175 597 -197
615 -17 14 -40 18 -99 18 l-76 0 0 105 0 105 152 0 c210 0 190 23 293 -335 66
-226 86 -284 106 -302 l25 -23 1591 0 1590 0 34 -34 c20 -20 34 -44 34 -59 0
-41 -290 -1868 -299 -1886 -5 -9 -19 -25 -31 -36 -22 -20 -42 -20 -1159 -25
-625 -3 -1142 -9 -1149 -13 -38 -25 -34 -53 38 -299 76 -258 97 -302 168 -352
84 -58 52 -56 1082 -56 935 0 948 0 973 -20 28 -22 54 -87 40 -101 -4 -4 -38
3 -78 18 -92 34 -221 36 -307 5 -54 -20 -161 -83 -174 -103 -3 -5 -73 -9 -155
-9 -146 0 -151 -1 -174 -25 -32 -31 -32 -69 0 -100 22 -23 31 -25 121 -25 95
0 96 0 90 -22 -3 -13 -11 -54 -18 -91 -52 -312 257 -592 567 -512 267 70 415
344 325 601 -11 33 -33 78 -49 100 l-29 41 19 54 c23 67 23 91 3 160 -20 67
-97 148 -160 167 -31 9 -267 12 -983 12 -1015 0 -979 -2 -1029 52 -15 16 -38
79 -68 179 -24 85 -47 162 -50 171 -5 17 57 18 1078 20 l1083 3 53 29 c55 31
105 88 121 140 14 43 301 1874 301 1918 0 121 -95 227 -221 245 l-54 8 -5 492
c-6 553 1 509 -84 577 -37 31 -39 31 -176 34 l-137 3 -22 -27 c-26 -33 -27
-65 -2 -95 18 -22 28 -24 133 -27 62 -2 119 -8 126 -14 9 -8 12 -68 12 -238
l0 -227 -197 -6 c-308 -11 -863 -9 -863 3 0 19 -75 93 -110 108 -24 10 -82 17
-182 20 l-148 4 0 153 c0 131 3 156 18 174 17 21 23 21 485 23 l469 3 19 24
c26 32 24 73 -4 99 -23 22 -24 22 -500 22 -526 0 -517 1 -577 -62 l-33 -35
-221 95 c-191 82 -230 95 -286 98 -36 2 -76 0 -90 -5z m347 -247 l223 -97 0
-123 0 -124 -426 0 -426 0 14 23 c8 12 66 105 128 206 101 163 118 185 154
202 26 13 53 18 75 15 19 -3 135 -49 258 -102z m-1909 -381 c50 -32 92 -108
92 -163 0 -49 -37 -117 -83 -154 -99 -78 -262 -23 -297 102 -12 46 -12 58 0
104 13 44 52 93 95 119 48 30 140 26 193 -8z m2564 -140 c16 -15 18 -35 18
-220 l0 -203 -745 0 -745 0 0 208 c0 148 3 211 12 220 9 9 184 12 727 12 651
0 716 -1 733 -17z m1218 -273 l0 -160 -520 0 -520 0 0 160 0 160 520 0 520 0
0 -160z m-187 -3320 c115 -43 187 -141 195 -266 7 -103 -16 -163 -87 -235 -40
-40 -71 -61 -108 -73 -159 -53 -321 16 -388 165 -24 55 -27 71 -23 138 3 60
11 88 33 130 73 134 235 194 378 141z"/>
<path d="M4099 667 c-60 -23 -96 -54 -123 -109 -41 -82 -32 -162 26 -232 82
-100 239 -101 325 -3 59 67 68 154 26 238 -47 92 -162 140 -254 106z m117
-176 c16 -30 4 -62 -28 -80 -23 -13 -29 -13 -52 2 -32 21 -37 79 -8 96 29 18
75 9 88 -18z"/>
<path d="M1573 3535 c-11 -8 -24 -26 -27 -40 -4 -17 57 -242 199 -733 244
-838 232 -800 255 -812 12 -6 413 -10 1123 -10 1094 0 1104 0 1122 20 15 16
42 172 136 768 125 790 125 787 78 812 -11 6 -549 10 -1441 10 -1239 0 -1426
-2 -1445 -15z m841 -337 c9 -112 20 -234 23 -273 5 -54 11 -74 29 -92 23 -23
25 -23 283 -23 143 0 267 3 276 6 40 16 45 51 45 324 l0 260 60 0 60 0 0 -272
c0 -265 1 -272 22 -295 21 -23 22 -23 288 -23 266 0 267 0 288 23 20 21 24 46
43 273 11 137 22 259 25 272 4 20 10 22 65 22 l60 0 -6 -47 c-3 -27 -12 -126
-20 -221 -29 -334 -35 -322 156 -322 l131 0 -7 -42 c-13 -84 -3 -78 -135 -78
-131 0 -163 -9 -179 -49 -8 -21 -51 -471 -51 -533 0 -15 -9 -18 -60 -18 l-60
0 0 30 c0 17 9 135 20 263 12 127 18 242 15 254 -12 49 -45 54 -311 51 -245
-3 -246 -3 -265 -27 -18 -22 -19 -42 -19 -297 l0 -274 -60 0 -59 0 -3 276 -3
276 -28 24 c-28 24 -29 24 -272 24 -243 0 -244 0 -272 -24 -24 -21 -27 -30
-26 -72 3 -65 32 -419 38 -467 l5 -38 -62 3 -63 3 -22 265 c-12 145 -26 275
-32 287 -17 37 -51 43 -235 43 l-174 0 -11 44 c-6 24 -13 51 -17 60 -6 14 13
16 185 16 190 0 192 0 216 25 14 13 25 30 25 37 0 7 -9 114 -20 238 -11 123
-20 239 -20 257 l0 33 58 0 59 0 17 -202z m-290 140 c3 -29 10 -111 16 -183 6
-71 12 -145 14 -162 l5 -33 -154 0 -154 0 -25 83 c-58 194 -96 327 -96 337 0
6 68 10 194 10 l194 0 6 -52z m786 -163 l0 -215 -159 0 -159 0 -6 58 c-3 31
-10 113 -16 182 -6 69 -12 140 -15 158 l-4 32 180 0 179 0 0 -215z m786 163
c-3 -29 -10 -116 -16 -193 -6 -77 -13 -150 -16 -162 -4 -23 -6 -23 -164 -23
l-160 0 0 215 0 215 181 0 181 0 -6 -52z m629 30 c-3 -13 -16 -97 -30 -188
-38 -249 -23 -220 -116 -220 -69 0 -79 2 -79 18 0 9 7 106 17 215 l16 197 99
0 c97 0 98 0 93 -22z m-2131 -860 c3 -13 10 -88 16 -168 6 -80 13 -169 16
-197 l6 -53 -64 0 -65 0 -56 193 c-31 105 -59 204 -62 220 l-7 27 106 0 c102
0 106 -1 110 -22z m716 -198 l0 -220 -123 0 -124 0 -12 148 c-7 81 -15 180
-18 220 l-6 72 142 0 141 0 0 -220z m715 193 c-2 -16 -9 -91 -15 -168 -6 -77
-13 -164 -16 -192 l-6 -53 -124 0 -124 0 0 220 0 220 145 0 145 0 -5 -27z
m564 10 c0 -10 -15 -108 -32 -218 l-32 -200 -53 -3 c-52 -3 -52 -3 -47 25 2
15 9 91 15 168 6 77 13 164 16 193 l6 52 64 0 c55 0 64 -3 63 -17z"/>
<path d="M1310 3110 c-11 -11 -20 -33 -20 -51 0 -35 557 -1958 589 -2032 23
-54 89 -153 120 -181 l21 -19 -35 -34 c-113 -110 -163 -269 -131 -421 54 -257
312 -422 561 -357 183 48 316 194 347 381 11 64 5 140 -18 221 l-6 23 254 0
c253 0 255 0 276 23 31 33 29 80 -4 106 -26 20 -38 21 -326 21 l-299 0 -52 39
c-66 50 -131 78 -213 91 -64 10 -147 5 -191 -11 -17 -6 -29 -2 -52 17 -48 40
-107 138 -135 221 -14 43 -145 490 -291 993 -146 503 -270 928 -277 943 -19
49 -81 64 -118 27z m1103 -2360 c118 -44 197 -156 197 -280 0 -97 -23 -155
-89 -221 -189 -189 -502 -71 -519 196 -14 222 203 383 411 305z"/>
<path d="M2248 671 c-150 -49 -204 -226 -105 -346 76 -92 222 -100 311 -17
103 97 79 279 -45 343 -46 23 -121 32 -161 20z m110 -184 c12 -24 11 -31 -2
-52 -21 -32 -52 -40 -81 -21 -29 19 -34 66 -9 91 26 26 76 16 92 -18z"/>
</g>
</svg>
