<?xml version="1.0" encoding="UTF-8"?>
<!DOCTYPE svg PUBLIC "-//W3C//DTD SVG 1.1//EN" "http://www.w3.org/Graphics/SVG/1.1/DTD/svg11.dtd">
<!-- Creator: CorelDRAW -->
<svg xmlns="http://www.w3.org/2000/svg" xml:space="preserve" width="300px" height="401px" version="1.1" shape-rendering="geometricPrecision" text-rendering="geometricPrecision" image-rendering="optimizeQuality" fill-rule="evenodd" clip-rule="evenodd"
viewBox="0 0 93.73 125.21"
 xmlns:xlink="http://www.w3.org/1999/xlink"
 xmlns:xodm="http://www.corel.com/coreldraw/odm/2003">
 <g id="Capa_x0020_1">
  <metadata id="CorelCorpID_0Corel-Layer"/>
  <g id="_2741110899472">
   <path fill="#FFAF10" d="M17.63 51.03c-2.71,-3.97 -1.73,-12.81 -1.35,-17.9 -1.89,1.33 -6.57,8.9 -8.18,12.01 -7.07,13.61 -10.85,34.38 -5.74,49.73 3.3,9.92 9.61,16.96 18.14,22.57 8.89,5.84 18.97,9.35 32.36,7.07 22.96,-3.9 35.86,-18.44 39.95,-41.37 2.86,-15.98 -1.11,-36.76 -9.81,-49.18 -2.27,-3.25 -6.81,-9.15 -10.35,-10.42 1.01,5.37 1.38,14.16 -3.39,17.85 -3.91,-11.1 -3.7,-13.47 -11.2,-24.52 -3.78,-5.58 -11.84,-14.35 -19.42,-16.87 -0.39,6.08 0.07,10.64 -1.07,16.87 -2.31,12.66 -9.5,28.68 -19.94,34.16z"/>
   <g>
    <path fill="#FEFEFE" d="M74.43 73.76c-1.98,0.51 -54.08,0.87 -55.13,-0.24 -1.24,-1.31 1.05,-5.63 1.74,-6.73 8.28,-13.11 32.76,-16.17 46.96,-5.22 2.06,1.58 8.08,7.62 6.43,12.19z"/>
    <path fill="#FEFEFE" d="M60.51 86.04c3.8,-2 9.17,-7.72 11.79,-7.68 5.91,0.08 6.61,9.81 0.87,10.75 -2.94,0.49 -41.65,0.12 -49.42,0.12 -3.58,0 -5.96,-0.21 -6.71,-3.37 -2.02,-8.44 5.07,-7.48 11.53,-7.48 6.44,0 13.35,-0.25 19.72,-0.02 2.56,0.09 3.62,1.35 6.42,3.5 2.09,1.6 3.71,2.99 5.8,4.18z"/>
    <path fill="#FEFEFE" d="M19.12 92.85c3.84,1.38 2.67,1.08 6.6,-0.03 3.41,-0.95 3.95,1.19 6.76,1.01 2.87,-0.19 2.71,-2.14 6.71,-0.88 4.98,1.56 3.47,-0.18 6.97,-0.48 2.66,-0.23 3.91,1.79 6.81,1.06 4.6,-1.16 2,-1.47 6.8,-0.05 3.58,1.06 3.9,-1.31 7.26,-0.85 1.41,0.19 2,0.94 3.55,1.07 1.61,0.14 2.64,-0.54 4.09,-0.8 0.31,6.65 -3.22,10.67 -9.12,11.83 -12.15,2.38 -25.67,2.46 -37.8,0.1 -4.87,-0.95 -9.95,-5.69 -8.63,-11.98z"/>
   </g>
  </g>
 </g>
</svg>
