<?xml version="1.0" encoding="UTF-8"?>
<!DOCTYPE svg PUBLIC "-//W3C//DTD SVG 1.1//EN" "http://www.w3.org/Graphics/SVG/1.1/DTD/svg11.dtd">
<svg xmlns="http://www.w3.org/2000/svg" version="1.1" width="512px" height="512px" style="shape-rendering:geometricPrecision; text-rendering:geometricPrecision; image-rendering:optimizeQuality; fill-rule:evenodd; clip-rule:evenodd" xmlns:xlink="http://www.w3.org/1999/xlink">
<g><path style="opacity:0.968" fill="#010000" d="M 245.5,-0.5 C 251.833,-0.5 258.167,-0.5 264.5,-0.5C 284.995,5.83961 297.329,19.6729 301.5,41C 339.987,47.9704 369.154,68.137 389,101.5C 392.009,106.514 394.175,111.847 395.5,117.5C 395.026,120.311 393.693,122.645 391.5,124.5C 387.599,125.143 384.266,124.143 381.5,121.5C 367.563,89.062 343.563,68.2286 309.5,59C 280.777,52.3906 251.777,50.8906 222.5,54.5C 172.704,60.4774 139.871,87.144 124,134.5C 117.705,157.071 114.038,180.071 113,203.5C 112.966,239.196 111.966,274.863 110,310.5C 108.005,323.165 104.172,335.165 98.5,346.5C 97.7109,346.783 97.0442,347.283 96.5,348C 202.57,348.832 307.903,348.665 412.5,347.5C 409.05,342.125 406.384,336.458 404.5,330.5C 401.485,317.699 399.652,304.699 399,291.5C 398.264,256.822 397.264,222.155 396,187.5C 394.755,173.194 392.588,159.027 389.5,145C 389.542,143.033 390.042,141.199 391,139.5C 392.518,138.837 393.685,137.837 394.5,136.5C 397.862,136.07 400.695,137.07 403,139.5C 408.202,157.438 411.202,175.771 412,194.5C 412.925,228.838 413.925,263.171 415,297.5C 415.295,311.656 418.628,324.99 425,337.5C 428.389,342.219 432.889,345.386 438.5,347C 469.596,347.107 487.262,362.441 491.5,393C 489.768,416.066 477.768,430.732 455.5,437C 415.858,438.445 376.192,438.945 336.5,438.5C 330.229,478.769 307.229,503.102 267.5,511.5C 259.167,511.5 250.833,511.5 242.5,511.5C 211.608,505.456 190.108,487.79 178,458.5C 175.797,451.985 174.297,445.319 173.5,438.5C 161.771,438.912 150.104,438.412 138.5,437C 136.266,435.362 134.933,433.195 134.5,430.5C 136.428,423.266 141.094,420.6 148.5,422.5C 249.834,422.667 351.167,422.5 452.5,422C 470.704,415.432 477.871,402.598 474,383.5C 470.007,373.507 462.84,367.007 452.5,364C 351.167,363.5 249.834,363.333 148.5,363.5C 118.165,363.333 87.8315,363.5 57.5,364C 36.2984,372.608 30.1317,387.442 39,408.5C 43.7384,414.898 49.9051,419.398 57.5,422C 76.5,422.333 95.5,422.667 114.5,423C 117.892,424.542 119.892,427.042 120.5,430.5C 119.612,434.888 116.946,437.388 112.5,438C 93.1384,438.877 73.8051,438.544 54.5,437C 32.0894,430.832 20.4227,416.165 19.5,393C 20.0267,371.618 30.36,357.285 50.5,350C 57.4355,348.591 64.4355,347.591 71.5,347C 80.3232,344.211 86.1565,338.378 89,329.5C 92.6142,319.482 94.6142,309.149 95,298.5C 96.1444,264.175 97.1444,229.841 98,195.5C 98.9372,162.47 106.604,131.137 121,101.5C 140.846,68.137 170.013,47.9704 208.5,41C 212.625,19.7149 224.959,5.88152 245.5,-0.5 Z"/></g>
<g><path style="opacity:1" fill="#df8a12" d="M 249.5,14.5 C 266.741,13.7496 278.408,21.4162 284.5,37.5C 264.804,37.6212 245.137,37.6212 225.5,37.5C 229.653,25.6775 237.653,18.0109 249.5,14.5 Z"/></g>
<g><path style="opacity:0.921" fill="#000000" d="M 126.5,32.5 C 134.511,31.8524 138.011,35.519 137,43.5C 104.47,67.2033 85.803,99.2033 81,139.5C 80.0846,148.147 79.4179,156.814 79,165.5C 73.9559,172.15 68.9559,172.15 64,165.5C 62.129,122.778 74.7957,85.1116 102,52.5C 109.485,44.8339 117.651,38.1672 126.5,32.5 Z"/></g>
<g><path style="opacity:0.922" fill="#000000" d="M 377.5,32.5 C 382.416,32.2899 386.749,33.7899 390.5,37C 422.042,62.5642 440.208,95.7309 445,136.5C 446.411,146.13 446.744,155.797 446,165.5C 440.58,172.401 435.58,172.067 431,164.5C 431.644,128.771 421.311,96.7712 400,68.5C 392.582,60.0791 384.249,52.7457 375,46.5C 371.383,40.9792 372.216,36.3126 377.5,32.5 Z"/></g>
<g><path style="opacity:0.919" fill="#000000" d="M 68.5,35.5 C 76.6577,34.8229 80.1577,38.4895 79,46.5C 56.8403,65.5932 45.8403,89.9265 46,119.5C 44.5349,125.653 40.7016,127.82 34.5,126C 31.5927,124.201 29.9261,121.534 29.5,118C 29.7648,94.8753 36.2648,73.7087 49,54.5C 54.7331,47.2654 61.2331,40.932 68.5,35.5 Z"/></g>
<g><path style="opacity:0.918" fill="#000000" d="M 435.5,35.5 C 439.719,34.979 443.386,36.1457 446.5,39C 471.545,62.2368 482.045,90.7368 478,124.5C 474,127.167 470,127.167 466,124.5C 465.138,122.913 464.471,121.246 464,119.5C 464.16,89.9297 453.16,65.5964 431,46.5C 430.083,41.7317 431.583,38.065 435.5,35.5 Z"/></g>
<g><path style="opacity:1" fill="#f6d25f" d="M 391.5,124.5 C 392.5,128.501 393.5,132.501 394.5,136.5C 393.685,137.837 392.518,138.837 391,139.5C 390.042,141.199 389.542,143.033 389.5,145C 392.588,159.027 394.755,173.194 396,187.5C 397.264,222.155 398.264,256.822 399,291.5C 399.652,304.699 401.485,317.699 404.5,330.5C 338.668,331.665 272.668,331.832 206.5,331C 190.892,326.392 181.059,316.226 177,300.5C 176.991,263.168 177.324,225.835 178,188.5C 178.906,160.769 182.572,133.435 189,106.5C 193.486,87.0182 202.986,70.5182 217.5,57C 219.315,56.2432 220.981,55.4098 222.5,54.5C 251.777,50.8906 280.777,52.3906 309.5,59C 343.563,68.2286 367.563,89.062 381.5,121.5C 384.266,124.143 387.599,125.143 391.5,124.5 Z"/></g>
<g><path style="opacity:1" fill="#e48d13" d="M 222.5,54.5 C 220.981,55.4098 219.315,56.2432 217.5,57C 202.986,70.5182 193.486,87.0182 189,106.5C 182.572,133.435 178.906,160.769 178,188.5C 177.324,225.835 176.991,263.168 177,300.5C 181.059,316.226 190.892,326.392 206.5,331C 272.668,331.832 338.668,331.665 404.5,330.5C 406.384,336.458 409.05,342.125 412.5,347.5C 307.665,347.833 202.999,347.499 98.5,346.5C 104.172,335.165 108.005,323.165 110,310.5C 111.966,274.863 112.966,239.196 113,203.5C 114.038,180.071 117.705,157.071 124,134.5C 139.871,87.144 172.704,60.4774 222.5,54.5 Z"/></g>
<g><path style="opacity:1" fill="#c77b10" d="M 98.5,346.5 C 202.999,347.499 307.665,347.833 412.5,347.5C 307.903,348.665 202.57,348.832 96.5,348C 97.0442,347.283 97.7109,346.783 98.5,346.5 Z"/></g>
<g><path style="opacity:0.999" fill="#e38d13" d="M 148.5,363.5 C 133.061,377.784 130.228,394.451 140,413.5C 142.396,416.999 145.229,419.999 148.5,422.5C 141.094,420.6 136.428,423.266 134.5,430.5C 129.833,430.5 125.167,430.5 120.5,430.5C 119.892,427.042 117.892,424.542 114.5,423C 95.5,422.667 76.5,422.333 57.5,422C 49.9051,419.398 43.7384,414.898 39,408.5C 30.1317,387.442 36.2984,372.608 57.5,364C 87.8315,363.5 118.165,363.333 148.5,363.5 Z"/></g>
<g><path style="opacity:1" fill="#f5d15f" d="M 148.5,363.5 C 249.834,363.333 351.167,363.5 452.5,364C 462.84,367.007 470.007,373.507 474,383.5C 477.871,402.598 470.704,415.432 452.5,422C 351.167,422.5 249.834,422.667 148.5,422.5C 145.229,419.999 142.396,416.999 140,413.5C 130.228,394.451 133.061,377.784 148.5,363.5 Z"/></g>
<g><path style="opacity:1" fill="#e38d13" d="M 317.5,452.5 C 293.164,452.333 268.831,452.5 244.5,453C 234.161,458.202 231.661,466.035 237,476.5C 243.872,484.665 252.038,490.998 261.5,495.5C 233.42,497.709 211.92,486.709 197,462.5C 192.791,454.66 190.291,446.327 189.5,437.5C 233.167,437.5 276.833,437.5 320.5,437.5C 320.405,442.687 319.405,447.687 317.5,452.5 Z"/></g>
<g><path style="opacity:1" fill="#f5d15e" d="M 317.5,452.5 C 307.326,477.918 288.659,492.251 261.5,495.5C 252.038,490.998 243.872,484.665 237,476.5C 231.661,466.035 234.161,458.202 244.5,453C 268.831,452.5 293.164,452.333 317.5,452.5 Z"/></g>
</svg>
