<?xml version="1.0" encoding="UTF-8"?>
<!DOCTYPE svg PUBLIC "-//W3C//DTD SVG 1.1//EN" "http://www.w3.org/Graphics/SVG/1.1/DTD/svg11.dtd">
<svg xmlns="http://www.w3.org/2000/svg" version="1.1" width="512px" height="512px" style="shape-rendering:geometricPrecision; text-rendering:geometricPrecision; image-rendering:optimizeQuality; fill-rule:evenodd; clip-rule:evenodd" xmlns:xlink="http://www.w3.org/1999/xlink">
<g><path style="opacity:0.919" fill="#000000" d="M 245.5,-0.5 C 251.833,-0.5 258.167,-0.5 264.5,-0.5C 284.995,5.83961 297.329,19.6729 301.5,41C 344.516,48.7019 375.35,72.2019 394,111.5C 397.505,118.816 395.338,123.483 387.5,125.5C 385.833,124.833 384.167,124.167 382.5,123.5C 364.77,84.7863 334.77,62.2863 292.5,56C 265.453,51.421 238.453,51.7544 211.5,57C 162.036,67.7975 131.869,97.9642 121,147.5C 117.273,164.981 114.94,182.648 114,200.5C 113.141,230.162 112.474,259.829 112,289.5C 111.816,305.605 109.149,321.272 104,336.5C 102.421,339.994 100.587,343.327 98.5,346.5C 202.833,347.833 307.167,347.833 411.5,346.5C 404.975,335.759 401.142,324.092 400,311.5C 399.144,303.516 398.477,295.516 398,287.5C 398.119,250.439 396.786,213.439 394,176.5C 392.682,165.911 390.849,155.411 388.5,145C 389.172,138.22 392.838,135.553 399.5,137C 402.663,138.48 404.496,140.98 405,144.5C 410.154,168.889 412.821,193.556 413,218.5C 413.183,244.849 413.85,271.182 415,297.5C 415.295,311.656 418.628,324.99 425,337.5C 428.389,342.219 432.889,345.386 438.5,347C 469.596,347.107 487.262,362.441 491.5,393C 489.768,416.066 477.768,430.732 455.5,437C 415.858,438.445 376.192,438.945 336.5,438.5C 330.229,478.769 307.229,503.102 267.5,511.5C 259.167,511.5 250.833,511.5 242.5,511.5C 211.608,505.456 190.108,487.79 178,458.5C 175.797,451.985 174.297,445.319 173.5,438.5C 161.771,438.912 150.104,438.412 138.5,437C 132.589,430.555 133.589,425.555 141.5,422C 245.167,421.667 348.833,421.333 452.5,421C 468.923,415.33 476.089,403.83 474,386.5C 470.833,375.333 463.667,368.167 452.5,365C 320.833,364.333 189.167,364.333 57.5,365C 41.0928,370.633 33.9261,382.133 36,399.5C 39.1667,410.667 46.3333,417.833 57.5,421C 76.1667,421.333 94.8333,421.667 113.5,422C 121.167,425.667 122.167,430.667 116.5,437C 95.8563,438.933 75.1896,438.933 54.5,437C 32.0894,430.832 20.4227,416.165 19.5,393C 20.0264,373.138 29.3597,359.138 47.5,351C 55.3506,348.851 63.3506,347.518 71.5,347C 82.2758,342.877 88.7758,335.044 91,323.5C 94.0442,310.352 95.7108,297.019 96,283.5C 96.3113,254.158 96.9779,224.825 98,195.5C 98.9372,162.47 106.604,131.137 121,101.5C 140.846,68.137 170.013,47.9704 208.5,41C 212.625,19.7149 224.959,5.88152 245.5,-0.5 Z M 248.5,15.5 C 266.371,13.9246 278.038,21.5913 283.5,38.5C 264.5,35.8333 245.5,35.8333 226.5,38.5C 229.787,26.881 237.121,19.2144 248.5,15.5 Z M 189.5,439.5 C 232.998,438.335 276.665,438.169 320.5,439C 310.936,478.287 285.936,496.953 245.5,495C 214.987,488.32 196.32,469.82 189.5,439.5 Z"/></g>
<g><path style="opacity:0.921" fill="#000000" d="M 126.5,32.5 C 134.511,31.8524 138.011,35.519 137,43.5C 104.47,67.2033 85.803,99.2033 81,139.5C 80.0846,148.147 79.4179,156.814 79,165.5C 73.9559,172.15 68.9559,172.15 64,165.5C 62.129,122.778 74.7957,85.1116 102,52.5C 109.485,44.8339 117.651,38.1672 126.5,32.5 Z"/></g>
<g><path style="opacity:0.922" fill="#000000" d="M 377.5,32.5 C 382.416,32.2899 386.749,33.7899 390.5,37C 422.042,62.5642 440.208,95.7309 445,136.5C 446.411,146.13 446.744,155.797 446,165.5C 440.58,172.401 435.58,172.067 431,164.5C 431.644,128.771 421.311,96.7712 400,68.5C 392.582,60.0791 384.249,52.7457 375,46.5C 371.383,40.9792 372.216,36.3126 377.5,32.5 Z"/></g>
<g><path style="opacity:0.919" fill="#000000" d="M 68.5,35.5 C 76.6577,34.8229 80.1577,38.4895 79,46.5C 56.8403,65.5932 45.8403,89.9265 46,119.5C 44.5349,125.653 40.7016,127.82 34.5,126C 31.5927,124.201 29.9261,121.534 29.5,118C 29.7648,94.8753 36.2648,73.7087 49,54.5C 54.7331,47.2654 61.2331,40.932 68.5,35.5 Z"/></g>
<g><path style="opacity:0.918" fill="#000000" d="M 435.5,35.5 C 439.719,34.979 443.386,36.1457 446.5,39C 471.545,62.2368 482.045,90.7368 478,124.5C 474,127.167 470,127.167 466,124.5C 465.138,122.913 464.471,121.246 464,119.5C 464.16,89.9297 453.16,65.5964 431,46.5C 430.083,41.7317 431.583,38.065 435.5,35.5 Z"/></g>
</svg>
