<?xml version="1.0" standalone="no"?>
<!DOCTYPE svg PUBLIC "-//W3C//DTD SVG 20010904//EN"
 "http://www.w3.org/TR/2001/REC-SVG-20010904/DTD/svg10.dtd">
<svg version="1.0" xmlns="http://www.w3.org/2000/svg"
 width="500.000000pt" height="500.000000pt" viewBox="0 0 500.000000 500.000000"
 preserveAspectRatio="xMidYMid meet">

<g transform="translate(0.000000,500.000000) scale(0.100000,-0.100000)"
fill="#000000" stroke="none">
<path d="M1675 4791 c-46 -29 -1662 -1653 -1669 -1677 -4 -12 -2 -34 4 -50 12
-33 1629 -1657 1673 -1680 57 -31 76 -17 319 224 238 236 258 263 238 318 -6
16 -167 185 -363 382 l-352 352 980 -2 980 -3 70 -24 c283 -95 469 -283 551
-558 23 -75 27 -107 27 -218 0 -113 -3 -142 -27 -218 -81 -270 -264 -460 -531
-554 l-80 -28 -875 -5 c-921 -5 -906 -4 -930 -50 -6 -12 -10 -156 -10 -388 l0
-370 31 -27 32 -26 891 4 c951 4 928 3 1132 56 441 113 844 442 1052 858 75
150 136 344 163 518 15 103 15 357 0 460 -34 221 -109 432 -224 625 -219 369
-595 651 -1007 756 -189 48 -167 47 -1222 51 -549 2 -998 6 -998 8 0 2 157
160 349 350 192 190 354 359 361 375 7 17 9 42 5 57 -7 31 -431 464 -477 489
-36 19 -57 18 -93 -5z"/>
</g>
</svg>
