<?xml version="1.0" standalone="no"?>
<!DOCTYPE svg PUBLIC "-//W3C//DTD SVG 20010904//EN"
 "http://www.w3.org/TR/2001/REC-SVG-20010904/DTD/svg10.dtd">
<svg version="1.0" xmlns="http://www.w3.org/2000/svg"
 width="500.000000pt" height="500.000000pt" viewBox="0 0 500.000000 500.000000"
 preserveAspectRatio="xMidYMid meet">

<g transform="translate(0.000000,500.000000) scale(0.100000,-0.100000)"
fill="#baedb2" stroke="none">
<path d="M513 4989 c-134 -26 -260 -140 -297 -270 -15 -50 -16 -265 -14 -2244
l3 -2190 28 -58 c56 -114 162 -194 289 -217 35 -7 729 -9 2014 -8 l1959 3 54
22 c78 32 126 69 175 134 84 111 77 -93 74 2364 l-3 2180 -33 67 c-55 112
-163 195 -281 218 -66 12 -3905 12 -3968 -1z m3917 -2489 l0 -2120 -1927 2
-1928 3 -3 2118 -2 2117 1930 0 1930 0 0 -2120z"/>
<path d="M1162 3463 l3 -188 170 -1 c93 -1 175 0 182 3 10 4 13 48 13 189 l0
184 -185 0 -185 0 2 -187z"/>
<path d="M1930 3465 c0 -141 3 -185 13 -185 6 0 435 0 952 -1 l940 0 3 185 2
186 -955 0 -955 0 0 -185z"/>
<path d="M1165 2677 c-3 -7 -4 -91 -3 -187 l3 -175 180 0 180 0 0 185 0 185
-178 3 c-139 2 -179 0 -182 -11z"/>
<path d="M1936 2682 c-3 -3 -6 -85 -6 -183 0 -177 0 -179 23 -184 12 -3 441
-4 952 -3 l930 3 3 179 c2 122 -1 182 -8 186 -14 9 -1886 11 -1894 2z"/>
<path d="M1164 1717 c-2 -7 -3 -91 -2 -187 l3 -175 183 -3 182 -2 0 184 c0
158 -2 185 -16 190 -9 3 -90 6 -180 6 -125 0 -166 -3 -170 -13z"/>
<path d="M1934 1721 c-2 -2 -4 -87 -4 -188 l0 -183 953 2 952 3 3 183 c2 168
1 182 -15 182 -269 3 -1886 4 -1889 1z"/>
</g>
</svg>
