<?xml version="1.0" standalone="no"?>
<!DOCTYPE svg PUBLIC "-//W3C//DTD SVG 20010904//EN"
 "http://www.w3.org/TR/2001/REC-SVG-20010904/DTD/svg10.dtd">
<svg version="1.0" xmlns="http://www.w3.org/2000/svg"
 width="500.000000pt" height="500.000000pt" viewBox="0 0 500.000000 500.000000"
 preserveAspectRatio="xMidYMid meet">

<g transform="translate(0.000000,500.000000) scale(0.100000,-0.100000)"
fill="#000000" stroke="none">
<path d="M2105 4986 c-102 -25 -201 -92 -257 -173 -55 -81 -70 -135 -77 -278
l-6 -130 -420 -5 c-402 -5 -422 -6 -473 -27 -115 -47 -206 -143 -248 -260 -22
-63 -24 -82 -24 -277 0 -195 1 -211 21 -243 32 -52 64 -63 178 -63 l100 0 6
-52 c6 -57 37 -434 170 -2058 68 -829 89 -1059 105 -1111 36 -122 137 -227
270 -282 l55 -22 960 -3 c692 -2 977 0 1020 8 156 30 291 152 337 304 13 46
38 312 98 1046 134 1634 169 2063 175 2118 l6 52 102 0 c112 0 142 11 178 66
17 26 19 50 19 235 0 180 -3 216 -20 273 -38 120 -137 223 -264 274 -35 14
-102 17 -461 22 l-420 5 -6 130 c-7 143 -22 197 -77 278 -59 85 -165 154 -270
176 -76 16 -711 13 -777 -3z m750 -296 c65 -32 85 -77 85 -194 l0 -96 -440 0
-440 0 0 96 c0 117 20 162 84 194 39 19 60 20 355 20 294 0 317 -1 356 -20z
m1174 -598 c62 -31 76 -61 79 -173 l4 -99 -1612 0 -1612 0 4 99 c3 112 17 142
79 173 32 17 125 18 1529 18 1404 0 1497 -1 1529 -18z m-228 -566 c5 -5 -247
-3056 -256 -3113 -7 -41 -50 -92 -92 -109 -48 -21 -1858 -21 -1906 0 -42 17
-85 68 -92 109 -9 58 -261 3108 -256 3113 6 5 2596 5 2602 0z"/>
<path d="M1842 3211 c-18 -12 -41 -35 -52 -53 -20 -32 -20 -53 -20 -1246 0
-1315 -3 -1238 54 -1291 39 -36 119 -41 166 -9 75 51 70 -48 70 1298 0 1127
-1 1207 -18 1239 -24 48 -62 73 -119 78 -36 3 -56 -1 -81 -16z"/>
<path d="M2430 3212 c-22 -12 -44 -35 -58 -63 l-22 -44 2 -1210 3 -1210 23
-33 c30 -42 70 -62 124 -62 58 0 104 30 128 83 19 41 20 80 20 1237 l0 1196
-22 44 c-26 50 -74 80 -128 80 -19 0 -51 -8 -70 -18z"/>
<path d="M3009 3207 c-74 -49 -69 48 -69 -1297 0 -1346 -5 -1247 70 -1298 47
-32 127 -27 166 9 57 53 54 -24 54 1291 0 1193 0 1214 -20 1246 -43 70 -135
93 -201 49z"/>
</g>
</svg>
