<?xml version="1.0" standalone="no"?>
<!DOCTYPE svg PUBLIC "-//W3C//DTD SVG 20010904//EN"
 "http://www.w3.org/TR/2001/REC-SVG-20010904/DTD/svg10.dtd">
<svg version="1.0" xmlns="http://www.w3.org/2000/svg"
 width="500.000000pt" height="499.000000pt" viewBox="0 0 500.000000 499.000000"
 preserveAspectRatio="xMidYMid meet">

<g transform="translate(0.000000,499.000000) scale(0.100000,-0.100000)"
fill="#baedb2" stroke="none">
<path d="M2320 4959 c-324 -25 -622 -107 -918 -254 -716 -355 -1213 -1038
-1337 -1835 -25 -161 -30 -466 -11 -639 94 -841 608 -1573 1361 -1941 372
-181 739 -259 1159 -247 213 6 344 23 521 68 912 231 1607 946 1809 1860 58
263 72 642 32 894 -96 601 -384 1121 -840 1512 -402 345 -901 546 -1447 583
-159 11 -178 11 -329 -1z m563 -403 c217 -41 448 -123 623 -221 989 -553 1366
-1775 856 -2778 -164 -324 -401 -591 -707 -796 -696 -466 -1614 -466 -2310 0
-759 509 -1101 1431 -855 2309 210 747 833 1327 1590 1479 169 34 243 40 460
36 170 -2 229 -7 343 -29z"/>
<path d="M3570 3244 c-22 -9 -256 -235 -647 -627 l-613 -612 -332 331 c-357
355 -367 363 -450 350 -55 -9 -92 -30 -122 -69 -49 -63 -52 -149 -8 -219 31
-48 791 -803 829 -822 41 -21 125 -21 166 0 46 23 1384 1360 1409 1408 29 57
22 150 -15 199 -51 67 -143 93 -217 61z"/>
</g>
</svg>
