<?xml version="1.0" encoding="UTF-8"?>
<!DOCTYPE svg PUBLIC "-//W3C//DTD SVG 1.1//EN" "http://www.w3.org/Graphics/SVG/1.1/DTD/svg11.dtd">
<!-- Creator: CorelDRAW -->
<svg xmlns="http://www.w3.org/2000/svg" xml:space="preserve" width="1416px" height="400px" version="1.1" shape-rendering="geometricPrecision" text-rendering="geometricPrecision" image-rendering="optimizeQuality" fill-rule="evenodd" clip-rule="evenodd"
viewBox="0 0 1415.89 400.21"
 xmlns:xlink="http://www.w3.org/1999/xlink"
 xmlns:xodm="http://www.corel.com/coreldraw/odm/2003">
 <g id="Capa_x0020_1">
  <metadata id="CorelCorpID_0Corel-Layer"/>
  <g id="_2741110898800">
   <path fill="#000000" fill-rule="nonzero" d="M55.23 0c5.98,0 11.3,1.38 15.98,4.13 4.67,2.76 8.31,6.54 10.93,11.36 2.61,4.81 3.92,10.2 3.92,16.18l0 1.82c0,5.98 -1.31,11.4 -3.92,16.26 -2.62,4.86 -6.26,8.67 -10.93,11.42 -4.68,2.76 -10,4.14 -15.98,4.14l-23.12 0 0 31.11 -30.98 0 0 -96.42 54.1 0zm-23.12 42.74l12.75 0c3.27,0 5.72,-0.84 7.36,-2.52 1.63,-1.68 2.45,-3.97 2.45,-6.87l0 -1.12c0,-2.99 -0.82,-5.3 -2.45,-6.93 -1.64,-1.64 -4.09,-2.46 -7.36,-2.46l-12.75 0 0 19.9zm122.9 53.68l-4.06 -13.6 -33.78 0 -4.06 13.6 -31.67 0 35.17 -96.42 36.02 0 35.17 96.42 -32.79 0zm-31.39 -35.18l20.88 0 -10.09 -34.33 -0.56 0 -10.23 34.33zm149.39 35.18l-12.47 -58.72 -0.56 0 -12.48 58.72 -34.05 0 -22.56 -96.42 32.23 0 11.07 54.66 0.56 0 10.93 -54.66 30.55 0 11.63 54.66 0.57 0 10.37 -54.66 30.83 0 -22.57 96.42 -34.05 0z"/>
   <path fill="#000000" fill-rule="nonzero" d="M138.6 121.5c15.32,0 28.96,3.53 40.93,10.59 11.97,7.06 21.31,16.76 28.01,29.08 6.7,12.33 10.05,26.16 10.05,41.48l0 4.66c0,15.32 -3.35,29.21 -10.05,41.66 -6.7,12.44 -16.04,22.2 -28.01,29.26 -11.97,7.06 -25.61,10.59 -40.93,10.59l-59.25 0 0 79.71 -79.35 0 0 -247.03 138.6 0zm-59.25 109.51l32.68 0c8.38,0 14.66,-2.15 18.85,-6.46 4.19,-4.31 6.28,-10.17 6.28,-17.6l0 -2.87c0,-7.66 -2.09,-13.58 -6.28,-17.77 -4.19,-4.19 -10.47,-6.28 -18.85,-6.28l-32.68 0 0 50.98z"/>
   <g>
    <path fill="#FFAF10" d="M286.28 163.87c-8.64,-12.65 -5.54,-40.81 -4.32,-57.03 -6.02,4.24 -20.91,28.34 -26.05,38.25 -22.52,43.38 -34.58,109.53 -18.3,158.46 10.52,31.61 30.64,54.02 57.8,71.89 28.32,18.62 60.45,29.79 103.11,22.53 73.13,-12.43 114.23,-58.75 127.28,-131.81 9.1,-50.91 -3.56,-117.12 -31.25,-156.69 -7.25,-10.36 -21.7,-29.16 -32.97,-33.19 3.2,17.11 4.38,45.11 -10.82,56.89 -12.45,-35.37 -11.8,-42.95 -35.67,-78.15 -12.05,-17.77 -37.73,-45.7 -61.9,-53.74 -1.21,19.38 0.24,33.91 -3.38,53.75 -7.36,40.34 -30.27,91.36 -63.53,108.84z"/>
    <g>
     <path fill="#FEFEFE" d="M467.23 236.27c-6.29,1.64 -172.3,2.79 -175.64,-0.75 -3.94,-4.16 3.34,-17.93 5.56,-21.44 26.37,-41.78 104.35,-51.52 149.6,-16.65 6.55,5.05 25.75,24.3 20.48,38.84z"/>
     <path fill="#FEFEFE" d="M422.88 275.4c12.11,-6.36 29.21,-24.6 37.58,-24.48 18.81,0.28 21.04,31.26 2.77,34.28 -9.36,1.54 -132.7,0.37 -157.45,0.38 -11.43,0 -19,-0.69 -21.4,-10.74 -6.44,-26.88 16.17,-23.85 36.75,-23.85 20.5,0 42.53,-0.79 62.82,-0.06 8.15,0.29 11.55,4.31 20.47,11.16 6.64,5.1 11.79,9.51 18.46,13.31z"/>
     <path fill="#FEFEFE" d="M291.02 297.11c12.22,4.39 8.51,3.43 21.03,-0.09 10.85,-3.05 12.57,3.78 21.54,3.2 9.13,-0.59 8.61,-6.82 21.38,-2.8 15.85,4.98 11.05,-0.56 22.19,-1.53 8.48,-0.73 12.46,5.71 21.7,3.39 14.67,-3.7 6.36,-4.68 21.67,-0.16 11.41,3.37 12.43,-4.19 23.11,-2.73 4.52,0.62 6.39,3.02 11.32,3.43 5.13,0.42 8.41,-1.74 13.02,-2.55 0.99,21.17 -10.25,34 -29.04,37.69 -38.7,7.58 -81.79,7.84 -120.43,0.31 -15.52,-3.02 -31.7,-18.12 -27.49,-38.16z"/>
    </g>
   </g>
   <path fill="#000000" fill-rule="nonzero" d="M741.57 371.33l-31.96 -150.45 -1.43 0 -31.96 150.45 -87.25 0 -57.81 -247.04 82.58 0 28.37 140.03 1.44 0 28 -140.03 78.28 0 29.8 140.03 1.44 0 26.57 -140.03 78.99 0 -57.81 247.04 -87.25 0zm173.43 -247.04l213.64 0 0 59.25 -134.29 0 0 34.11 114.9 0 0 56.73 -114.9 0 0 37.7 136.8 0 0 59.25 -216.15 0 0 -247.04zm493.71 75.76c0,15.08 -4.07,28.73 -12.21,40.94 -8.14,12.2 -19.99,21.18 -35.55,26.93l54.94 103.41 -89.05 0 -43.8 -90.13 -29.44 0 0 90.13 -79.36 0 0 -247.04 151.17 0c17.71,0 32.85,3.41 45.42,10.23 12.57,6.83 22.02,16.04 28.36,27.65 6.35,11.61 9.52,24.24 9.52,37.88zm-80.79 3.23c0,-6.46 -2.15,-11.84 -6.46,-16.15 -4.31,-4.31 -9.58,-6.47 -15.8,-6.47l-52.06 0 0 45.6 52.06 0c6.22,0 11.49,-2.21 15.8,-6.64 4.31,-4.43 6.46,-9.87 6.46,-16.34z"/>
  </g>
 </g>
</svg>
