<?xml version="1.0" standalone="no"?>
<!DOCTYPE svg PUBLIC "-//W3C//DTD SVG 20010904//EN"
 "http://www.w3.org/TR/2001/REC-SVG-20010904/DTD/svg10.dtd">
<svg version="1.0" xmlns="http://www.w3.org/2000/svg"
 width="377.000000pt" height="308.000000pt" viewBox="0 0 377.000000 308.000000"
 preserveAspectRatio="xMidYMid meet">

<g transform="translate(0.000000,308.000000) scale(0.100000,-0.100000)"
fill="#ffffff" stroke="none">
<path d="M595 2977 c-83 -33 -134 -79 -177 -160 -33 -61 -33 -193 0 -257 54
-103 142 -160 258 -168 62 -4 79 -1 130 22 72 33 117 75 152 141 23 43 27 62
27 135 0 73 -4 92 -27 135 -55 104 -155 165 -268 164 -36 0 -78 -6 -95 -12z
m173 -157 c130 -79 74 -280 -78 -280 -85 0 -150 65 -150 150 0 85 65 150 150
150 27 0 58 -8 78 -20z"/>
<path d="M3010 2973 c-62 -23 -150 -113 -173 -178 -40 -116 -14 -230 72 -315
96 -95 219 -117 336 -61 228 107 233 428 9 541 -62 31 -177 38 -244 13z m188
-153 c69 -42 94 -139 52 -208 -79 -129 -280 -74 -280 76 0 62 40 127 90 145
35 13 106 6 138 -13z"/>
<path d="M600 2295 c-66 -22 -138 -82 -174 -145 l-31 -55 -3 -411 c-3 -397 -2
-413 18 -467 26 -68 92 -140 158 -170 42 -20 67 -22 255 -25 225 -4 216 -2
201 -60 l-6 -22 -297 0 c-330 0 -342 2 -388 70 l-23 33 0 567 c0 559 0 568
-21 594 -27 34 -77 36 -107 3 l-22 -23 0 -572 c0 -662 -3 -637 95 -734 l53
-54 -24 -215 c-13 -117 -28 -250 -34 -294 -20 -160 -7 -205 60 -205 56 0 71
28 85 160 3 30 16 155 30 277 14 123 25 227 25 233 0 6 98 10 275 10 l275 0
-5 -27 c-3 -16 -16 -104 -30 -198 -14 -93 -31 -203 -37 -243 -8 -53 -8 -79 0
-97 15 -32 138 -90 223 -104 133 -22 315 -8 412 33 31 12 40 11 108 -12 68
-24 87 -27 234 -27 146 0 166 3 232 26 l73 25 72 -25 c67 -23 87 -26 233 -25
140 0 168 3 223 22 85 30 140 66 148 97 3 13 -4 86 -15 162 -12 76 -28 183
-37 238 -8 55 -17 112 -20 127 l-6 28 275 0 275 0 7 -67 c4 -38 13 -120 20
-183 8 -63 19 -171 26 -240 7 -69 18 -137 26 -152 24 -49 103 -50 125 -2 12
25 11 33 -33 439 -6 50 -14 124 -18 165 l-8 75 49 47 c27 27 59 69 71 95 22
47 22 55 25 629 3 577 2 581 -18 607 -29 37 -80 37 -109 1 -21 -26 -21 -35
-21 -586 0 -615 1 -605 -61 -649 -34 -24 -35 -24 -338 -27 -328 -3 -321 -4
-321 50 l0 26 213 4 c197 3 215 5 254 26 63 33 106 74 139 134 l29 53 0 430 0
430 -31 55 c-57 102 -180 168 -289 157 -103 -10 -202 -84 -249 -186 -20 -43
-21 -67 -26 -346 l-5 -300 -52 -3 c-29 -2 -53 -2 -53 0 0 2 -5 30 -10 63 -6
33 -17 107 -26 165 -11 78 -21 111 -36 128 l-21 22 -712 0 -712 0 -21 -23
c-17 -17 -25 -52 -42 -162 -32 -216 -23 -195 -85 -195 l-54 0 -3 303 c-3 284
-4 305 -24 348 -66 143 -226 219 -364 174z m174 -162 c60 -45 61 -48 66 -420
6 -414 -5 -386 146 -391 74 -3 94 -7 90 -17 -3 -8 -8 -41 -12 -74 l-7 -61
-201 0 c-226 0 -251 6 -293 69 -23 34 -23 35 -23 426 0 391 0 392 23 426 32
49 81 71 139 65 27 -3 59 -13 72 -23z m2430 1 c14 -9 35 -31 46 -49 19 -31 20
-49 20 -422 0 -389 0 -390 -23 -424 -42 -64 -67 -70 -291 -67 l-200 3 -12 65
c-7 36 -13 68 -13 72 -1 3 42 8 95 10 91 3 97 5 120 31 l24 28 0 331 0 331 25
42 c32 55 75 77 137 71 26 -3 58 -12 72 -22z m-684 -441 c5 -4 25 -118 44
-253 20 -135 45 -303 56 -375 11 -71 36 -238 56 -370 19 -132 39 -267 44 -300
16 -104 18 -101 -54 -120 -77 -21 -276 -17 -341 7 l-40 15 -5 151 c-5 163 -9
174 -61 187 -20 5 -34 0 -55 -18 l-29 -25 -3 -150 -3 -150 -47 -13 c-70 -21
-316 -18 -363 3 l-36 16 -5 221 c-5 215 -6 222 -28 246 -29 30 -59 32 -93 4
l-27 -20 -2 -227 -3 -226 -55 -18 c-74 -23 -252 -24 -332 -2 -48 14 -58 20
-58 39 0 12 11 98 25 191 14 93 44 291 66 439 43 291 74 498 89 585 5 30 12
80 16 110 3 30 8 57 9 60 5 9 1227 2 1235 -7z"/>
</g>
</svg>
