<?xml version="1.0" encoding="UTF-8"?>
<!DOCTYPE svg PUBLIC "-//W3C//DTD SVG 1.1//EN" "http://www.w3.org/Graphics/SVG/1.1/DTD/svg11.dtd">
<svg xmlns="http://www.w3.org/2000/svg" xml:space="preserve" width="3000px" height="2829px" version="1.1" 
viewBox="0 0 3000.11 2829.45" xmlns:xlink="http://www.w3.org/1999/xlink">
 <defs>
  <style type="text/css">
   <![CDATA[
    .texto {font-weight:bold;font-size:100px; font-family: Arial, Helvetica, sans-serif;}
    .escalera {stroke:#333;stroke-width:2.07;stroke-miterlimit:22.9256; fill: #fff;}
    .puerta {stroke:#333;stroke-width:2.07;stroke-miterlimit:22.9256; fill: #fff;}
    .cantero {fill:#0A5;stroke:black; stroke-width: 3px;}
    .terraza {fill:#999; stroke:black; stroke-width: 3px;}
    .piso {fill:#FFF; stroke:black; stroke-width: 3px;}
    .mesa {fill:#FFF; stroke:black; stroke-width: 3px;}
    .silla {fill:#333;}
    g[id^="mesa-"]:hover .mesa{
      fill:#ffaf10;
      cursor: pointer;
    }
  
    g[id^="mesa-"]:hover .silla{
      stroke: #ffaf10;
      stroke-width: 5px;
      cursor: pointer;
    }
   ]]>
  </style>
 </defs>
 <g id="plantaBaja">
  <polygon id="pB" class="piso" points="260.78,1427.01 2998.96,1427.01 2998.96,2519.51 2697.91,2828.3 260.78,2828.3 260.78,2828.3 2.28,2828.3 2.28,2568.2 260.78,2568.2 "/>
  <g id="barraPlantaBaja">
   <rect class="mesa" x="419.13" y="1427.01" width="171.43" height="999.84"/>
   <g>
    <rect class="silla" x="604.23" y="1488.42" width="102.21" height="102.21"/>
    <rect class="silla" x="604.23" y="1682.11" width="102.21" height="102.21"/>
    <rect class="silla" x="604.23" y="1875.81" width="102.21" height="102.21"/>
    <rect class="silla" x="604.23" y="2069.52" width="102.21" height="102.21"/>
    <rect class="silla" x="604.23" y="2263.23" width="102.21" height="102.21"/>
   </g>
  </g>
  <g id="mesa-162">
   <circle class="mesa" cx="1684.94" cy="2242.19" r="177.92"/>
   <rect class="silla" x="1633.84" y="1960.75" width="102.21" height="102.21"/>
   <rect class="silla" transform="matrix(-0.5 -0.866025 -0.866025 0.5 1954.22 2145.72)" width="102.21" height="102.21"/>
   <rect class="silla" transform="matrix(0.5 -0.866025 -0.866025 -0.5 1903.12 2427.16)" width="102.21" height="102.21"/>
   <rect class="silla" x="1633.84" y="2421.41" width="102.21" height="102.21"/>
   <rect class="silla" transform="matrix(0.5 0.866025 0.866025 -0.5 1415.66 2338.65)" width="102.21" height="102.21"/>
   <rect class="silla" transform="matrix(-0.5 0.866025 0.866025 0.5 1466.76 2057.22)" width="102.21" height="102.21"/>
  </g>
  <g id="mesa-161">
   <circle class="mesa" cx="1056.95" cy="2242.19" r="177.92"/>
   <rect class="silla" x="1005.85" y="1960.75" width="102.21" height="102.21"/>
   <rect class="silla" transform="matrix(-0.5 -0.866025 -0.866025 0.5 1326.23 2145.72)" width="102.21" height="102.21"/>
   <rect class="silla" transform="matrix(0.5 -0.866025 -0.866025 -0.5 1275.13 2427.16)" width="102.21" height="102.21"/>
   <rect class="silla" x="1005.85" y="2421.41" width="102.21" height="102.21"/>
   <rect class="silla" transform="matrix(0.5 0.866025 0.866025 -0.5 787.67 2338.65)" width="102.21" height="102.21"/>
   <rect class="silla" transform="matrix(-0.5 0.866025 0.866025 0.5 838.771 2057.22)" width="102.21" height="102.21"/>
  </g>
  <g id="mesa-144">
   <rect class="silla" x="2489.43" y="1721.17" width="102.21" height="102.21"/>
   <rect class="silla" x="2846.84" y="1721.17" width="102.21" height="102.21"/>
   <polygon class="mesa" points="2834.16,1657.35 2834.16,1427.51 2604.32,1427.51 2604.32,1657.35 2604.32,1887.2 2834.16,1887.2 "/>
   <rect class="silla" x="2489.43" y="1491.33" width="102.21" height="102.21"/>
   <rect class="silla" x="2846.84" y="1491.33" width="102.21" height="102.21"/>
  </g>
  <g id="mesa-143">
   <rect class="silla" x="1927.21" y="1721.17" width="102.21" height="102.21"/>
   <rect class="silla" x="2284.63" y="1721.17" width="102.21" height="102.21"/>
   <polygon class="mesa" points="2271.95,1657.35 2271.95,1427.51 2042.1,1427.51 2042.1,1657.35 2042.1,1887.2 2271.95,1887.2 "/>
   <rect class="silla" x="1927.21" y="1491.33" width="102.21" height="102.21"/>
   <rect class="silla" x="2284.63" y="1491.33" width="102.21" height="102.21"/>
  </g>
  <g id="mesa-142">
   <rect class="silla" x="1364.98" y="1721.17" width="102.21" height="102.21"/>
   <rect class="silla" x="1722.41" y="1721.17" width="102.21" height="102.21"/>
   <polygon class="mesa" points="1709.72,1657.35 1709.72,1427.51 1479.87,1427.51 1479.87,1657.35 1479.87,1887.2 1709.72,1887.2 "/>
   <rect class="silla" x="1364.98" y="1491.33" width="102.21" height="102.21"/>
   <rect class="silla" x="1722.41" y="1491.33" width="102.21" height="102.21"/>
  </g>
  <g id="mesa-141">
   <rect class="silla" x="802.77" y="1721.17" width="102.21" height="102.21"/>
   <rect class="silla" x="1160.18" y="1721.17" width="102.21" height="102.21"/>
   <polygon class="mesa" points="1147.5,1657.35 1147.5,1427.51 917.66,1427.51 917.66,1657.35 917.66,1887.2 1147.5,1887.2 "/>
   <rect class="silla" x="802.77" y="1491.33" width="102.21" height="102.21"/>
   <rect class="silla" x="1160.18" y="1491.33" width="102.21" height="102.21"/>
  </g>
  <g id="mesa-126">
   <rect class="mesa" transform="matrix(2.38519E-14 0.900597 -0.657579 1.74157E-14 2996.65 2089.25)" width="255.22" height="349.53"/>
   <rect class="silla" transform="matrix(-2.64845E-14 -1 -1 2.64845E-14 2932.83 2076.57)" width="102.21" height="102.21"/>
   <rect class="silla" transform="matrix(-2.64845E-14 -1 -1 2.64845E-14 2932.83 2433.99)" width="102.21" height="102.21"/>
  </g>
  <g id="mesa-125">
   <rect class="mesa" transform="matrix(2.38519E-14 0.900597 -0.657579 1.74157E-14 2634.21 2089.25)" width="255.22" height="349.53"/>
   <rect class="silla" transform="matrix(-2.64845E-14 -1 -1 2.64845E-14 2570.39 2076.57)" width="102.21" height="102.21"/>
   <rect class="silla" transform="matrix(-2.64845E-14 -1 -1 2.64845E-14 2570.39 2433.99)" width="102.21" height="102.21"/>
  </g>
  <g id="mesa-124">
   <rect class="mesa" transform="matrix(2.38519E-14 0.900597 -0.657579 1.74157E-14 2271.76 2089.25)" width="255.22" height="349.53"/>
   <rect class="silla" transform="matrix(-2.64845E-14 -1 -1 2.64845E-14 2207.95 2076.57)" width="102.21" height="102.21"/>
   <rect class="silla" transform="matrix(-2.64845E-14 -1 -1 2.64845E-14 2207.95 2433.99)" width="102.21" height="102.21"/>
  </g>
  <g id="mesa-123">
   <rect class="mesa" x="2061.98" y="2598.45" width="229.85" height="229.85"/>
   <rect class="silla" x="1947.09" y="2662.27" width="102.21" height="102.21"/>
   <rect class="silla" x="2304.51" y="2662.27" width="102.21" height="102.21"/>
  </g>
  <g id="mesa-122">
   <rect class="mesa" x="1479.87" y="2598.45" width="229.85" height="229.85"/>
   <rect class="silla" x="1364.98" y="2662.27" width="102.21" height="102.21"/>
   <rect class="silla" x="1722.41" y="2662.27" width="102.21" height="102.21"/>
  </g>
  <g id="mesa-121">
   <rect class="mesa" x="917.66" y="2598.45" width="229.85" height="229.85"/>
   <rect class="silla" x="802.77" y="2662.27" width="102.21" height="102.21"/>
   <rect class="silla" x="1160.18" y="2662.27" width="102.21" height="102.21"/>
  </g>
  <g class="texto" transform="matrix(1 0 0 1 -1438.8 1375.73)">
   <text x="1500" y="1414.73" id="nombrePlantaBaja" class="texto">Planta Baja</text>
  </g>
  <g id="puertaDeEntrada">
   <path id="puertaEntrada" class="puerta" d="M2933.01 2536.14l3.05 -3.06 51.76 51.77 -6.09 6.1 -51.77 -51.77 3.05 -3.04zm-182.72 228.38l205.56 -205.56 6.08 6.1 -205.54 205.55 -6.1 -6.09zm-22.83 -22.84l3.05 -3.05 51.76 51.77 -6.09 6.09 -51.76 -51.77 3.04 -3.04z"/>
  </g>
  <g id="escaleraPlantaBaja">
   <rect class="escalera" x="2.28" y="1427.01" width="258.51" height="242.01"/>
   <g>
    <rect class="escalera" x="2.28" y="2455.96" width="258.51" height="56.12"/>
    <rect class="escalera" x="2.28" y="2399.84" width="258.51" height="56.12"/>
    <rect class="escalera" x="2.28" y="2343.74" width="258.51" height="56.12"/>
    <rect class="escalera" x="2.28" y="2287.62" width="258.51" height="56.12"/>
    <rect class="escalera" x="2.28" y="2231.5" width="258.51" height="56.12"/>
    <rect class="escalera" x="2.28" y="2175.38" width="258.51" height="56.12"/>
    <rect class="escalera" x="2.28" y="2119.27" width="258.51" height="56.12"/>
    <rect class="escalera" x="2.28" y="2063.15" width="258.51" height="56.12"/>
    <rect class="escalera" x="2.28" y="2007.03" width="258.51" height="56.12"/>
    <rect class="escalera" x="2.28" y="1950.91" width="258.51" height="56.12"/>
    <rect class="escalera" x="2.28" y="1894.81" width="258.51" height="56.12"/>
    <rect class="escalera" x="2.28" y="1782.57" width="258.51" height="56.12"/>
    <rect class="escalera" x="2.28" y="1838.69" width="258.51" height="56.12"/>
    <rect class="escalera" x="2.28" y="1726.45" width="258.51" height="56.12"/>
    <rect class="escalera" x="2.28" y="1670.33" width="258.51" height="56.12"/>
    <rect class="escalera" x="2.28" y="2512.08" width="258.51" height="56.12"/>
   </g>
  </g>
 </g>
 <g id="primerPiso">
  <rect id="terraza" class="terraza" x="1626.9" y="3.2" width="1285.23" height="1216.97"/>
  <polygon id="plantaAlta" class="piso" points="254.83,3.2 1626.9,3.2 1626.9,1307.02 254.83,1307.02 2.28,1307.02 2.28,792.18 254.83,792.18 254.83,245.2 2.28,245.2 2.28,3.2 "/>
  <g id="escaleraPlantaAlta">
   <rect class="escalera" x="2.28" y="737.61" width="252.55" height="54.56"/>
   <rect class="escalera" x="2.28" y="683.05" width="252.55" height="54.56"/>
   <rect class="escalera" x="2.28" y="628.48" width="252.55" height="54.56"/>
   <rect class="escalera" x="2.28" y="573.92" width="252.55" height="54.56"/>
   <rect class="escalera" x="2.28" y="519.36" width="252.55" height="54.56"/>
   <rect class="escalera" x="2.28" y="464.79" width="252.55" height="54.56"/>
   <rect class="escalera" x="2.28" y="355.66" width="252.55" height="54.56"/>
   <rect class="escalera" x="2.28" y="410.23" width="252.55" height="54.56"/>
   <rect class="escalera" x="2.28" y="301.1" width="252.55" height="54.56"/>
   <rect class="escalera" x="2.28" y="246.52" width="252.55" height="54.56"/>
  </g>
  <g id="puertaDeLaTerraza">
   <path id="puertaTerraza" class="puerta" d="M1590.3 535.52l0 -4.31 73.2 0 0 8.63 -73.2 0 0 -4.32zm32.29 290.69l0 -290.69 8.62 0 0 290.69 -8.62 0zm-32.29 0l0 -4.31 73.2 0 0 8.62 -73.2 0 0 -4.31z"/>
  </g>
  <g transform="matrix(1 0 0 1 -1478.7 -1302.72)">
   <text x="1500" y="1414.73" id="nombre1erPiso" class="texto">1er Piso</text>
  </g>
  <g id="barra-323">
   <rect class="silla" x="2624.82" y="892.38" width="102.21" height="102.21"/>
   <rect class="silla" x="2624.82" y="1081.32" width="102.21" height="102.21"/>
   <rect class="mesa" x="2740.69" y="835.9" width="171.43" height="384.27"/>
  </g>
  <g id="barra-322">
   <rect class="silla" x="2624.82" y="645.13" width="102.21" height="102.21"/>
   <rect class="silla" x="2624.82" y="456.19" width="102.21" height="102.21"/>
   <rect class="mesa" x="2740.69" y="419.55" width="171.43" height="384.27"/>
  </g>
  <g id="barra-321">
   <rect class="mesa" x="2740.69" y="3.2" width="171.43" height="384.27"/>
   <rect class="silla" x="2624.82" y="235.16" width="102.21" height="102.21"/>
   <rect class="silla" x="2624.82" y="46.22" width="102.21" height="102.21"/>
  </g>
  <g id="mesa-342">
   <rect class="silla" x="1705.63" y="1054.15" width="102.21" height="102.21"/>
   <rect class="silla" x="2063.05" y="1054.15" width="102.21" height="102.21"/>
   <polygon class="mesa" points="2050.37,990.33 2050.37,760.47 1820.51,760.47 1820.51,990.33 1820.51,1220.17 2050.37,1220.17 "/>
   <rect class="silla" x="1705.63" y="824.3" width="102.21" height="102.21"/>
   <rect class="silla" x="2063.05" y="824.3" width="102.21" height="102.21"/>
  </g>
  <g id="mesa-341">
   <rect class="silla" x="1705.63" y="296.86" width="102.21" height="102.21"/>
   <rect class="silla" x="2063.05" y="296.86" width="102.21" height="102.21"/>
   <polygon class="mesa" points="2050.37,233.05 2050.37,3.2 1820.51,3.2 1820.51,233.05 1820.51,462.89 2050.37,462.89 "/>
   <rect class="silla" x="1705.63" y="67.02" width="102.21" height="102.21"/>
   <rect class="silla" x="2063.05" y="67.02" width="102.21" height="102.21"/>
  </g>
  <g id="mesa-322">
   <rect class="mesa" transform="matrix(2.38519E-14 0.900597 -0.657579 1.74157E-14 2518.71 838.829)" width="255.22" height="349.53"/>
   <rect class="silla" transform="matrix(-2.64845E-14 -1 -1 2.64845E-14 2454.88 826.145)" width="102.21" height="102.21"/>
   <rect class="silla" transform="matrix(-2.64845E-14 -1 -1 2.64845E-14 2454.88 1183.57)" width="102.21" height="102.21"/>
  </g>
  <g id="mesa-321">
   <rect class="mesa" transform="matrix(2.38519E-14 0.900597 -0.657579 1.74157E-14 2518.71 142.783)" width="255.22" height="349.53"/>
   <rect class="silla" transform="matrix(-2.64845E-14 -1 -1 2.64845E-14 2454.88 130.098)" width="102.21" height="102.21"/>
   <rect class="silla" transform="matrix(-2.64845E-14 -1 -1 2.64845E-14 2454.88 487.518)" width="102.21" height="102.21"/>
  </g>
  <g id="mesa-262">
   <circle class="mesa" cx="1285.55" cy="321.13" r="177.92"/>
   <rect class="silla" x="1234.45" y="39.7" width="102.21" height="102.21"/>
   <rect class="silla" transform="matrix(-0.5 -0.866025 -0.866025 0.5 1554.83 224.673)" width="102.21" height="102.21"/>
   <rect class="silla" transform="matrix(0.5 -0.866025 -0.866025 -0.5 1503.73 506.108)" width="102.21" height="102.21"/>
   <rect class="silla" x="1234.45" y="500.37" width="102.21" height="102.21"/>
   <rect class="silla" transform="matrix(0.5 0.866025 0.866025 -0.5 1016.27 417.597)" width="102.21" height="102.21"/>
   <rect class="silla" transform="matrix(-0.5 0.866025 0.866025 0.5 1067.37 136.162)" width="102.21" height="102.21"/>
  </g>
  <g id="mesa-261">
   <circle class="mesa" cx="676.1" cy="999.94" r="177.92"/>
   <rect class="silla" x="625" y="718.51" width="102.21" height="102.21"/>
   <rect class="silla" transform="matrix(-0.5 -0.866025 -0.866025 0.5 945.387 903.484)" width="102.21" height="102.21"/>
   <rect class="silla" transform="matrix(0.5 -0.866025 -0.866025 -0.5 894.285 1184.92)" width="102.21" height="102.21"/>
   <rect class="silla" x="625" y="1179.18" width="102.21" height="102.21"/>
   <rect class="silla" transform="matrix(0.5 0.866025 0.866025 -0.5 406.826 1096.41)" width="102.21" height="102.21"/>
   <rect class="silla" transform="matrix(-0.5 0.866025 0.866025 0.5 457.928 814.973)" width="102.21" height="102.21"/>
  </g>
  <g id="mesa-241">
   <polygon class="mesa" points="1400.46,1076.32 1400.46,846.47 1170.62,846.47 1170.62,1076.32 1170.62,1306.16 1400.46,1306.16 "/>
   <rect class="silla" x="1055.74" y="1140.14" width="102.21" height="102.21"/>
   <rect class="silla" x="1413.16" y="1140.14" width="102.21" height="102.21"/>
   <rect class="silla" x="1055.74" y="910.29" width="102.21" height="102.21"/>
   <rect class="silla" x="1413.16" y="910.29" width="102.21" height="102.21"/>
  </g>
  <g id="mesa-223">
   <rect class="mesa" x="561.18" y="324.36" width="229.85" height="229.85"/>
   <rect class="silla" x="446.29" y="388.18" width="102.21" height="102.21"/>
   <rect class="silla" x="803.71" y="388.18" width="102.21" height="102.21"/>
  </g>
  <g id="mesa-222">
   <rect class="mesa" x="561.18" y="1.15" width="229.85" height="229.85"/>
   <rect class="silla" x="446.29" y="64.97" width="102.21" height="102.21"/>
   <rect class="silla" x="803.71" y="64.97" width="102.21" height="102.21"/>
  </g>
  <g id="mesa-221">
   <rect class="mesa" transform="matrix(2.38519E-14 0.900597 -0.657579 1.74157E-14 230.879 938.075)" width="255.22" height="349.53"/>
   <rect class="silla" transform="matrix(-2.64845E-14 -1 -1 2.64845E-14 167.057 925.391)" width="102.21" height="102.21"/>
   <rect class="silla" transform="matrix(-2.64845E-14 -1 -1 2.64845E-14 167.057 1282.81)" width="102.21" height="102.21"/>
  </g>
  <polygon id="cantero" class="cantero" points="2998.96,3.2 2912.13,3.2 2912.13,1220.17 1626.9,1220.17 1626.9,1307.02 2998.96,1307.02 2998.96,1220.17 "/>
  <g transform="matrix(1 0 0 1 1154.2 -110.909)">
   <text x="1450" y="1414.73" id="nombreTerraza" class="texto">Terraza</text>
  </g>
 </g>
</svg>
